<svg xmlns="http://www.w3.org/2000/svg" viewBox="0 0 128 128">
  <defs>
    <linearGradient id="g" x1="0" y1="0" x2="1" y2="1">
      <stop offset="0" stop-color="#fb923c"/>
      <stop offset="0.55" stop-color="#ea580c"/>
      <stop offset="1" stop-color="#dc2626"/>
    </linearGradient>
  </defs>
  <rect width="128" height="128" rx="30" fill="url(#g)"/>
  <!-- chef hat -->
  <g fill="#ffffff">
    <path d="M64 30c-6.6 0-12.3 3.7-15.2 9.1a15 15 0 0 0-3.8-.5c-8.3 0-15 6.7-15 15 0 6.9 4.6 12.7 11 14.4V82a4 4 0 0 0 4 4h38a4 4 0 0 0 4-4V68c6.4-1.7 11-7.5 11-14.4 0-8.3-6.7-15-15-15-1.3 0-2.6.2-3.8.5A17.2 17.2 0 0 0 64 30z"/>
    <rect x="41" y="90" width="46" height="8" rx="4"/>
  </g>
</svg>
